<svg width="24" height="24" viewBox="0 0 24 24" fill="none" xmlns="http://www.w3.org/2000/svg">
<path d="M22.5405 9.29154L21.0358 9.50919V8.06396C22.7228 7.699 24 6.04665 24 4.06949C24 1.82553 22.3549 0 20.3328 0C18.3107 0 16.6657 1.82563 16.6657 4.06949C16.6657 6.0467 17.9429 7.69911 19.6298 8.06396V9.71258L4.37015 11.9201V10.7508C6.05708 10.3858 7.33424 8.73344 7.33424 6.75633C7.33424 4.51242 5.68916 2.68684 3.66712 2.68684C1.64508 2.68684 0 4.51242 0 6.75633C0 8.73349 1.2772 10.3859 2.96409 10.7508V12.1235L1.32815 12.3601C0.943123 12.4158 0.671717 12.8073 0.72192 13.2345C0.768092 13.6276 1.07034 13.9139 1.41815 13.9139C1.44843 13.9139 1.47909 13.9117 1.50993 13.9073L11.0195 12.5316L8.95761 22.4397H8.31659C7.92833 22.4397 7.61356 22.789 7.61356 23.2198C7.61356 23.6507 7.92833 24 8.31659 24H15.6868C16.0751 24 16.3899 23.6507 16.3899 23.2198C16.3899 22.789 16.0751 22.4397 15.6868 22.4397H15.0385L12.7986 12.2742L22.7221 10.8386C23.1071 10.783 23.3786 10.3914 23.3284 9.96419C23.2782 9.53702 22.9253 9.23573 22.5405 9.29154ZM1.40601 6.75633C1.40601 5.37275 2.42034 4.24713 3.66712 4.24713C4.9139 4.24713 5.92822 5.3728 5.92822 6.75633C5.92822 8.13986 4.9139 9.26553 3.66712 9.26553C2.42034 9.26553 1.40601 8.13986 1.40601 6.75633ZM13.5911 22.4397H10.4007L11.9503 14.9933L13.5911 22.4397ZM18.0716 4.06944C18.0716 2.68586 19.086 1.56023 20.3327 1.56023C21.5796 1.56023 22.5939 2.68591 22.5939 4.06944C22.5939 5.45307 21.5795 6.57869 20.3327 6.57869C19.086 6.57869 18.0716 5.45307 18.0716 4.06944Z" fill="#1D1D1B"/>
</svg>
